<?xml version="1.0" encoding="UTF-8"?>
<svg xmlns="http://www.w3.org/2000/svg" version="1.1" xmlns:xlink="http://www.w3.org/1999/xlink" viewBox="0 0 1000 1000">
  <defs>
    <style>
      .cls-1 {
        fill: url(#linear-gradient-6);
        stroke-width: .05px;
      }

      .cls-1, .cls-2 {
        stroke: #231f20;
        stroke-miterlimit: 10;
      }

      .cls-3 {
        fill: #726658;
      }

      .cls-4 {
        fill: url(#linear-gradient-15);
      }

      .cls-5 {
        fill: url(#linear-gradient-13);
      }

      .cls-6 {
        fill: url(#linear-gradient-2);
      }

      .cls-7 {
        fill: url(#linear-gradient-10);
      }

      .cls-8 {
        fill: url(#linear-gradient-12);
      }

      .cls-9 {
        fill: #fff200;
      }

      .cls-10 {
        fill: #fff;
      }

      .cls-2 {
        fill: url(#linear-gradient-5);
        stroke-width: .35px;
      }

      .cls-11 {
        fill: url(#linear-gradient-4);
      }

      .cls-12 {
        font-size: 18.21px;
      }

      .cls-12, .cls-13 {
        font-family: MyriadPro-Regular, 'Myriad Pro';
      }

      .cls-13 {
        font-size: 171.22px;
      }

      .cls-14 {
        fill: url(#linear-gradient-3);
      }

      .cls-15 {
        fill: #f26522;
      }

      .cls-16 {
        fill: url(#linear-gradient-8);
      }

      .cls-17 {
        fill: url(#linear-gradient-14);
      }

      .cls-18 {
        fill: url(#linear-gradient-17);
      }

      .cls-19 {
        fill: url(#linear-gradient-7);
      }

      .cls-20 {
        fill: url(#linear-gradient-9);
      }

      .cls-21 {
        fill: url(#linear-gradient-11);
      }

      .cls-22 {
        fill: url(#linear-gradient-16);
      }

      .cls-23 {
        fill: url(#linear-gradient);
      }

      .cls-24 {
        fill: url(#linear-gradient-18);
      }
    </style>
    <linearGradient id="linear-gradient" x1="196.88" y1="642.5" x2="196.88" y2="257.39" gradientUnits="userSpaceOnUse">
      <stop offset="0" stop-color="#611b7d"/>
      <stop offset=".81" stop-color="#8f33a5"/>
    </linearGradient>
    <linearGradient id="linear-gradient-2" x1="735.03" y1="159.39" x2="75.89" y2="539.94" gradientUnits="userSpaceOnUse">
      <stop offset=".07" stop-color="#f655bc"/>
      <stop offset=".34" stop-color="#c83f9c"/>
      <stop offset=".83" stop-color="#500c62"/>
    </linearGradient>
    <linearGradient id="linear-gradient-3" x1="879.83" y1="330.85" x2="338.95" y2="871.74" gradientUnits="userSpaceOnUse">
      <stop offset=".03" stop-color="#e04aae"/>
      <stop offset="1" stop-color="#431047"/>
    </linearGradient>
    <linearGradient id="linear-gradient-4" x1="679.77" y1="532.67" x2="334.78" y2="877.66" gradientUnits="userSpaceOnUse">
      <stop offset=".08" stop-color="#ee53b8"/>
      <stop offset=".42" stop-color="#a2369d"/>
      <stop offset="1" stop-color="#651f88"/>
    </linearGradient>
    <linearGradient id="linear-gradient-5" x1="169.67" y1="702.72" x2="169.67" y2="702.72" xlink:href="#linear-gradient-2"/>
    <linearGradient id="linear-gradient-6" x1="-1179.38" y1="220.61" x2="-1179.38" y2="220.61" xlink:href="#linear-gradient-2"/>
    <linearGradient id="linear-gradient-7" x1="-1522.87" y1="389.68" x2="-1522.87" y2="272.98" xlink:href="#linear-gradient"/>
    <linearGradient id="linear-gradient-8" x1="-1351.56" y1="238.84" x2="-1560.29" y2="359.35" xlink:href="#linear-gradient-2"/>
    <linearGradient id="linear-gradient-9" x1="-1308.51" y1="291.77" x2="-1478.28" y2="461.54" xlink:href="#linear-gradient-3"/>
    <linearGradient id="linear-gradient-10" x1="-1367.97" y1="352.91" x2="-1477.42" y2="462.36" gradientUnits="userSpaceOnUse">
      <stop offset="0" stop-color="#711b5f"/>
      <stop offset=".49" stop-color="#69218d"/>
      <stop offset="1" stop-color="#4e185e"/>
    </linearGradient>
    <linearGradient id="linear-gradient-11" x1="-1238.94" y1="309.98" x2="-1302.82" y2="373.86" xlink:href="#linear-gradient-4"/>
    <linearGradient id="linear-gradient-12" x1="-1109.03" y1="220.56" x2="-1275.33" y2="386.86" xlink:href="#linear-gradient-4"/>
    <linearGradient id="linear-gradient-13" x1="-1038.31" y1="285.57" x2="-1208.08" y2="455.35" xlink:href="#linear-gradient-4"/>
    <linearGradient id="linear-gradient-14" x1="-1097.59" y1="346.72" x2="-1207.04" y2="456.17" xlink:href="#linear-gradient-4"/>
    <linearGradient id="linear-gradient-15" x1="-1350.52" y1="735.05" x2="-1350.52" y2="652.08" xlink:href="#linear-gradient"/>
    <linearGradient id="linear-gradient-16" x1="-1234.59" y1="630.97" x2="-1376.59" y2="712.95" xlink:href="#linear-gradient-2"/>
    <linearGradient id="linear-gradient-17" x1="-1203.39" y1="667.91" x2="-1319.92" y2="784.44" xlink:href="#linear-gradient-3"/>
    <linearGradient id="linear-gradient-18" x1="-1246.49" y1="711.39" x2="-1320.82" y2="785.71" xlink:href="#linear-gradient-4"/>
  </defs>
  <!-- Generator: Adobe Illustrator 28.6.0, SVG Export Plug-In . SVG Version: 1.2.0 Build 709)  -->
  <g>
    <g id="Layer_1">
      <g>
        <polygon class="cls-23" points="241.8 567.23 151.96 684.17 151.96 299.06 238.79 353.36 239.22 369.27 241.8 567.23"/>
        <polygon class="cls-6" points="634.98 273.24 500.72 192.96 238.79 353.36 151.96 299.06 500 98.12 799.48 271.02 161.18 687.66 634.98 273.24"/>
        <polygon class="cls-14" points="848.04 299.06 848.04 700.94 763.26 630.1 765.56 459.32 169.8 702.59 848.04 299.06"/>
        <polygon class="cls-11" points="848.04 700.94 500 901.88 166.51 709.38 318.41 690.58 502.73 791.82 753.9 635.62 763.26 630.1 848.04 700.94"/>
        <path class="cls-3" d="M163.12,686.28"/>
        <path class="cls-2" d="M169.67,702.72"/>
      </g>
      <path class="cls-3" d="M-1180.31,218.28"/>
      <path class="cls-1" d="M-1179.38,220.61"/>
      <g>
        <rect class="cls-10" x="-1807.91" y="-335.12" width="1041.02" height="1366.87"/>
        <g>
          <g>
            <g>
              <g>
                <polygon class="cls-19" points="-1508.61 366.92 -1537.12 402.31 -1537.12 285.65 -1537.05 285.61 -1509.49 302.19 -1509.43 307.02 -1508.61 366.92"/>
                <polygon class="cls-16" points="-1487.13 362.37 -1383.76 277.79 -1426.37 253.5 -1509.49 302.04 -1509.49 302.19 -1537.05 285.61 -1426.58 222.38 -1330.01 276.15 -1534.16 404.6 -1487.13 362.37"/>
                <polygon class="cls-20" points="-1316.15 284.13 -1316.33 404.55 -1343.05 385.78 -1342.32 334.1 -1469.49 386.88 -1530.77 409.06 -1316.15 284.13"/>
                <polygon class="cls-7" points="-1316.33 404.55 -1316.33 404.66 -1348.97 422.75 -1426.7 465.84 -1529.11 410.67 -1484.11 404.18 -1425.61 434.81 -1345.9 387.54 -1343.05 385.86 -1343.05 385.78 -1316.33 404.55"/>
              </g>
              <text class="cls-12" transform="translate(-1519.53 491.06)"><tspan x="0" y="0">I Created First (Not </tspan></text>
            </g>
            <g>
              <g>
                <polygon class="cls-21" points="-1238.23 360.73 -1266.74 396.11 -1266.74 279.45 -1266.67 279.41 -1239.11 295.99 -1239.05 300.82 -1238.23 360.73"/>
                <polygon class="cls-8" points="-1113.38 271.59 -1155.99 247.3 -1239.11 295.84 -1239.11 295.99 -1266.67 279.41 -1156.2 216.18 -1059.63 269.96 -1263.78 398.4 -1113.38 271.59"/>
                <polygon class="cls-5" points="-1045.95 277.94 -1046.13 398.36 -1072.85 379.59 -1072.12 327.9 -1260.57 402.86 -1045.95 277.94"/>
                <polygon class="cls-17" points="-1045.95 398.36 -1045.95 398.46 -1078.59 416.55 -1156.32 459.64 -1258.73 404.47 -1213.73 397.98 -1155.23 428.61 -1075.52 381.35 -1072.67 379.66 -1072.67 379.59 -1045.95 398.36"/>
              </g>
              <text class="cls-12" transform="translate(-1275.02 497.26)"><tspan x="0" y="0">I Created Second (Not Finaled)</tspan></text>
            </g>
          </g>
          <g>
            <g>
              <g>
                <polygon class="cls-9" points="-1271.74 44.34 -1271.74 -72.32 -1161.21 -135.6 -1064.64 -81.82 -1268.79 46.63 -1221.74 4.39 -1118.38 -80.19 -1160.99 -104.47 -1244.11 -55.93 -1243.23 8.95 -1271.74 44.34"/>
                <polygon class="cls-9" points="-1263.73 52.7 -1161.32 107.86 -1050.95 46.68 -1050.77 -73.84 -1265.39 51.09 -1204.11 28.9 -1076.95 -23.87 -1077.66 27.89 -1160.24 76.84 -1218.73 46.21 -1263.73 52.7"/>
              </g>
              <g>
                <polygon class="cls-15" points="-1495.51 8.95 -1524.03 44.33 -1524.03 -72.33 -1523.95 -72.37 -1496.39 -55.79 -1496.33 -50.96 -1495.51 8.95"/>
                <polygon class="cls-15" points="-1474.03 4.39 -1370.66 -80.19 -1413.27 -104.48 -1496.39 -55.94 -1496.39 -55.79 -1523.95 -72.37 -1413.48 -135.6 -1316.92 -81.82 -1521.07 46.62 -1474.03 4.39"/>
                <polygon class="cls-15" points="-1303.05 -73.84 -1303.23 46.58 -1329.95 27.81 -1329.22 -23.88 -1456.4 28.9 -1517.67 51.08 -1303.05 -73.84"/>
                <polygon class="cls-15" points="-1303.23 46.58 -1303.23 46.68 -1335.87 64.77 -1413.61 107.86 -1516.01 52.69 -1471.01 46.2 -1412.51 76.83 -1332.8 29.57 -1329.95 27.88 -1329.95 27.81 -1303.23 46.58"/>
              </g>
            </g>
            <text class="cls-12" transform="translate(-1384.3 131.66)"><tspan x="0" y="0">Starting Shape (Not Final)</tspan></text>
          </g>
          <g>
            <polygon class="cls-3" points="-1289.58 617.77 -1364.56 661.06 -1364.56 747.64 -1289.58 790.93 -1214.6 747.64 -1214.6 661.06 -1289.58 617.77"/>
            <g>
              <g>
                <polygon class="cls-4" points="-1340.85 718.83 -1360.2 744.03 -1360.2 661.06 -1341.5 672.76 -1341.4 676.18 -1340.85 718.83"/>
                <polygon class="cls-22" points="-1256.14 655.5 -1285.07 638.2 -1341.5 672.76 -1360.2 661.06 -1285.22 617.77 -1220.7 655.02 -1358.22 744.78 -1256.14 655.5"/>
                <polygon class="cls-18" points="-1210.24 661.06 -1210.24 747.64 -1228.51 732.38 -1228.01 695.58 -1356.36 747.99 -1210.24 661.06"/>
                <polygon class="cls-24" points="-1210.24 747.64 -1285.22 790.93 -1357.07 749.46 -1324.34 745.41 -1284.63 767.22 -1230.52 733.57 -1228.51 732.38 -1210.24 747.64"/>
              </g>
              <text class="cls-12" transform="translate(-1341.53 827.68)"><tspan x="0" y="0">FINAL (Perfect)</tspan></text>
            </g>
          </g>
        </g>
      </g>
      <text class="cls-13" transform="translate(-1997.28 1407.42) scale(1.22 1)"><tspan x="0" y="0">THE MAIN LOGO</tspan></text>
      <g>
        <path d="M-1853.27,1981.13l-57.64-125.17h28.4l33.42,72.08c1.67,3.66,3.27,7.48,4.8,11.47,1.53,4,3.13,8.5,4.8,13.53,1.81-5.48,3.55-10.21,5.22-14.21,1.67-3.99,3.2-7.59,4.59-10.79l33-72.08h27.78l-56.81,125.17h-27.57Z"/>
        <path d="M-1723.57,1981.13h-26.32v-125.17h26.52l79.36,98.45h-7.73v-98.45h26.32v125.17h-26.32l-79.57-98.28h7.73v98.28Z"/>
      </g>
      <g>
        <path d="M-1832.81,2178.42c-14.34,0-26.87-2.65-37.59-7.96-10.72-5.31-19.08-12.73-25.06-22.26-5.99-9.53-8.98-20.69-8.98-33.47s3.06-23.97,9.19-33.56c6.13-9.59,14.65-17.06,25.58-22.43,10.93-5.36,23.56-8.05,37.91-8.05,11.42,0,21.72,1.74,30.91,5.22,9.19,3.48,16.84,8.36,22.97,14.64,6.12,6.28,10.09,13.64,11.9,22.09h-21.93c-2.79-8.1-8.14-14.44-16.08-19.01-7.94-4.56-17.41-6.85-28.4-6.85-10.17,0-19.04,1.97-26.63,5.91-7.59,3.94-13.47,9.48-17.65,16.61-4.18,7.14-6.27,15.55-6.27,25.26s2.09,17.98,6.27,25.17c4.18,7.19,10.09,12.76,17.75,16.69,7.66,3.94,16.5,5.91,26.52,5.91,11.14,0,20.78-2.25,28.93-6.76,8.15-4.51,13.61-10.59,16.4-18.24h21.72c-2.09,8.22-6.3,15.41-12.64,21.57-6.34,6.16-14.2,10.96-23.6,14.38-9.4,3.42-19.81,5.14-31.22,5.14Z"/>
        <path d="M-1685.15,2092.12v14.73h-8.77c-9.33,0-16.68,2.2-22.03,6.59-5.36,4.4-8.04,10.65-8.04,18.75v44.35h-19.63v-83.56h18.38l1.67,16.78h-1.88c1.39-5.48,4.73-9.96,10.03-13.44,5.29-3.48,11.9-5.22,19.84-5.22,1.81,0,3.51.09,5.12.26,1.6.17,3.37.43,5.33.77Z"/>
        <path d="M-1626.46,2178.59c-9.89,0-18.66-1.86-26.32-5.56-7.66-3.71-13.65-8.84-17.96-15.41-4.32-6.56-6.47-14.18-6.47-22.86s2.12-16.49,6.37-23.12c4.25-6.62,10.09-11.81,17.54-15.58,7.45-3.77,16.11-5.65,26-5.65s18.2,1.71,25.38,5.14c7.17,3.42,12.74,8.22,16.71,14.38,3.97,6.16,5.95,13.41,5.95,21.75v5.99l-87.51.17.42-10.79h67.46c0-6.96-2.58-12.55-7.73-16.78-5.15-4.22-12.04-6.34-20.68-6.34-6.55,0-12.15,1.17-16.81,3.51-4.67,2.34-8.22,5.77-10.65,10.27-2.44,4.51-3.66,9.9-3.66,16.18,0,10.05,2.78,17.78,8.35,23.2,5.57,5.42,13.58,8.13,24.02,8.13,7.66,0,13.92-1.25,18.8-3.77,4.87-2.51,8.15-6.16,9.82-10.96h18.38c-2.51,8.9-7.87,15.81-16.08,20.72-8.22,4.91-18.66,7.36-31.33,7.36Z"/>
        <path d="M-1528.51,2178.59c-10.86,0-19.39-2.34-25.58-7.02-6.2-4.68-9.29-10.79-9.29-18.32s3.34-13.78,10.03-18.41c6.68-4.62,16.01-7.33,27.99-8.13l32.16-2.05v-2.4c0-4.68-1.04-8.42-3.13-11.21-2.09-2.8-4.94-4.79-8.56-5.99-3.62-1.2-7.73-1.8-12.32-1.8-8.22,0-14.59,1.4-19.11,4.2-4.53,2.8-6.79,6.76-6.79,11.9h-17.13c0-5.82,1.81-10.9,5.43-15.24,3.62-4.34,8.74-7.71,15.35-10.1,6.61-2.4,14.31-3.6,23.08-3.6s15.91,1.23,22.24,3.68c6.33,2.46,11.28,6.16,14.83,11.13,3.55,4.97,5.33,11.22,5.33,18.75v52.57h-16.71l-2.09-13.53c-2.65,4.79-7.21,8.59-13.68,11.39-6.47,2.8-13.82,4.2-22.03,4.2ZM-1522.87,2166.09c9.33,0,16.64-2.31,21.93-6.93,5.29-4.62,7.94-10.87,7.94-18.75v-4.45l-26.11,1.71c-8.63.69-14.87,2.34-18.69,4.97-3.83,2.63-5.74,5.99-5.74,10.1,0,4.45,1.84,7.79,5.54,10.02,3.69,2.23,8.74,3.34,15.14,3.34Z"/>
        <path d="M-1459.38,2092.8h59.73v13.53h-59.73v-13.53ZM-1419.69,2176.53h-19.63v-109.93h19.63v109.93Z"/>
        <path d="M-1372.49,2072.94c-3.48,0-6.51-1.05-9.08-3.17-2.58-2.11-3.86-4.59-3.86-7.45s1.29-5.48,3.86-7.53c2.57-2.05,5.6-3.08,9.08-3.08s6.68,1.03,9.19,3.08c2.51,2.05,3.76,4.57,3.76,7.53s-1.25,5.34-3.76,7.45c-2.51,2.11-5.57,3.17-9.19,3.17ZM-1382.1,2176.53v-83.73h19.63v83.73h-19.63Z"/>
        <path d="M-1340.75,2134.58c0-8.56,2.3-16.15,6.89-22.77,4.59-6.62,10.89-11.81,18.9-15.58,8-3.77,17.16-5.65,27.46-5.65s19.42,1.88,27.36,5.65c7.94,3.77,14.2,8.96,18.8,15.58,4.59,6.62,6.89,14.21,6.89,22.77s-2.3,16.15-6.89,22.77c-4.59,6.62-10.86,11.81-18.8,15.58s-17.06,5.65-27.36,5.65-19.46-1.88-27.46-5.65c-8.01-3.77-14.31-8.96-18.9-15.58-4.59-6.62-6.89-14.21-6.89-22.77ZM-1320.91,2134.58c0,5.82,1.43,10.96,4.28,15.41,2.85,4.45,6.79,7.94,11.8,10.45,5.01,2.51,10.79,3.77,17.33,3.77s12.32-1.25,17.33-3.77c5.01-2.51,8.94-5.99,11.8-10.45,2.85-4.45,4.28-9.59,4.28-15.41s-1.43-11.1-4.28-15.5c-2.86-4.39-6.79-7.85-11.8-10.36-5.01-2.51-10.79-3.77-17.33-3.77s-12.32,1.26-17.33,3.77c-5.01,2.51-8.95,5.97-11.8,10.36-2.86,4.4-4.28,9.56-4.28,15.5Z"/>
        <path d="M-1193.09,2176.53h-19.63v-83.73h17.75l2.09,12.84c3.2-4.79,7.83-8.53,13.89-11.22,6.06-2.68,12.7-4.02,19.95-4.02,13.37,0,23.25,3.14,29.66,9.42,6.4,6.28,9.61,14.78,9.61,25.51v51.2h-19.63v-47.6c0-8.45-2.23-14.52-6.68-18.24-4.46-3.71-10.44-5.56-17.96-5.56-9.19,0-16.33,2.46-21.41,7.36-5.08,4.91-7.62,11.47-7.62,19.69v44.35Z"/>
        <path d="M-1102.24,2152.22h18.8c0,4.22,1.88,7.56,5.64,10.02,3.76,2.46,8.84,3.68,15.25,3.68,6.96,0,12.32-1.11,16.08-3.34,3.76-2.23,5.64-5.22,5.64-8.99,0-2.74-1.01-5.02-3.03-6.85-2.02-1.83-5.68-3.31-10.96-4.45l-17.96-3.42c-9.05-1.83-15.77-4.62-20.15-8.39s-6.58-8.73-6.58-14.9c0-5.14,1.64-9.59,4.91-13.36,3.27-3.77,7.8-6.68,13.58-8.73,5.78-2.05,12.43-3.08,19.95-3.08s14.03,1.09,19.53,3.25c5.5,2.17,9.82,5.2,12.95,9.08,3.13,3.88,4.77,8.5,4.91,13.87h-18.8c-.14-4.34-1.88-7.71-5.22-10.1-3.34-2.4-8.01-3.6-13.99-3.6s-10.86,1.09-14.2,3.25c-3.34,2.17-5.01,5.14-5.01,8.9,0,5.59,5.01,9.42,15.04,11.47l17.96,3.6c8.63,1.6,15.11,4.2,19.42,7.79,4.31,3.6,6.47,8.48,6.47,14.64,0,5.25-1.74,9.85-5.22,13.78-3.48,3.94-8.25,6.96-14.31,9.07-6.06,2.11-13.19,3.17-21.41,3.17-11.98,0-21.51-2.4-28.61-7.19-7.1-4.79-10.65-11.19-10.65-19.18Z"/>
      </g>
    </g>
  </g>
</svg>